<?xml version="1.0" standalone="no"?>
<!DOCTYPE svg PUBLIC "-//W3C//DTD SVG 20010904//EN"
 "http://www.w3.org/TR/2001/REC-SVG-20010904/DTD/svg10.dtd">
<svg version="1.0" xmlns="http://www.w3.org/2000/svg"
 width="2509.000000pt" height="2509.000000pt" viewBox="0 0 2509.000000 2509.000000"
 preserveAspectRatio="xMidYMid meet">

<g transform="translate(0.000000,2509.000000) scale(0.100000,-0.100000)"
fill="#d796f2" stroke="none">
<path d="M2773 24239 c-29 -29 -12 -87 120 -414 265 -654 999 -2444 1347
-3285 67 -162 154 -371 192 -465 39 -93 140 -339 225 -545 86 -206 213 -514
283 -685 70 -170 178 -431 240 -580 61 -148 169 -409 240 -580 70 -170 316
-762 545 -1315 500 -1205 620 -1493 888 -2140 265 -641 433 -1045 677 -1630
108 -261 257 -619 330 -795 73 -176 167 -403 210 -505 43 -102 121 -289 173
-416 280 -677 2225 -5348 3657 -8784 358 -859 568 -1356 591 -1401 28 -55 46
-51 53 14 3 28 8 491 11 1027 14 2421 48 5264 75 6320 31 1180 42 1557 60
1965 45 1007 64 1147 200 1433 98 205 229 381 423 568 209 202 341 285 837
531 368 182 443 218 2575 1256 3143 1528 3741 1824 4260 2105 559 302 1195
663 1735 985 360 215 394 245 339 296 -28 26 -138 66 -894 324 -346 118 -767
263 -935 321 -168 57 -744 255 -1280 440 -876 300 -2111 726 -2845 981 -347
121 -645 223 -1300 450 -495 171 -847 293 -1920 667 -236 82 -635 221 -885
308 -250 87 -610 213 -800 280 -190 67 -484 170 -655 230 -170 60 -573 201
-895 315 -1301 459 -2417 852 -3270 1150 -1040 364 -3113 1089 -3300 1155
-868 305 -1211 422 -1250 427 -30 3 -49 0 -57 -8z"/>
</g>
</svg>
